<?xml version="1.0" encoding="UTF-8"?>
<svg xmlns="http://www.w3.org/2000/svg" width="288" height="74" viewBox="0 0 288 74" fill="none">
  <path d="M24.1254 56.1257V26.9922H26.9969V53.5817H43.8169V56.1257H24.1254V56.1257Z" fill="white"></path>
  <path d="M48.0421 56.1257V26.9922H50.9137V56.1257H48.0421Z" fill="white"></path>
  <path d="M105.638 53.5817V56.1257H86.0699V26.9922H105.269V29.5364H88.9415V40.0408H103.177V42.4617H88.9415V53.5817H105.638V53.5817Z" fill="white"></path>
  <path d="M122.007 27.1973H124.714L128.817 37.5377L132.96 27.1973H135.709L130.621 39.6304L136.201 52.8021L146.744 26.9922H149.862L137.514 56.1257H134.97L128.857 41.7232L122.704 56.1257H120.202L107.894 26.9922H110.971L121.555 52.8021L127.094 39.6304L122.007 27.1973V27.1973Z" fill="white"></path>
  <path d="M164.631 56.331C162.606 56.331 160.754 55.9142 159.072 55.0795C157.39 54.2453 155.947 53.1374 154.744 51.7558C153.54 50.3747 152.611 48.795 151.954 47.0164C151.298 45.2385 150.97 43.4197 150.97 41.559C150.97 39.617 151.319 37.757 152.016 35.9786C152.713 34.2006 153.677 32.6279 154.908 31.2598C156.139 29.8923 157.588 28.8048 159.257 27.9977C160.925 27.1911 162.73 26.7871 164.672 26.7871C166.695 26.7871 168.548 27.218 170.23 28.0798C171.912 28.9414 173.348 30.0698 174.538 31.465C175.727 32.8601 176.651 34.4399 177.307 36.2042C177.963 37.9687 178.291 39.7677 178.291 41.6002C178.291 43.5428 177.943 45.4027 177.246 47.1806C176.548 48.9592 175.59 50.5248 174.374 51.8788C173.156 53.233 171.714 54.3139 170.046 55.1206C168.377 55.9277 166.572 56.331 164.631 56.331L164.631 56.331ZM153.841 41.559C153.841 43.1458 154.101 44.6713 154.621 46.1342C155.14 47.598 155.878 48.8977 156.836 50.0324C157.793 51.1679 158.928 52.0707 160.241 52.7406C161.554 53.4111 163.017 53.7458 164.631 53.7458C166.272 53.7458 167.762 53.3908 169.102 52.6791C170.442 51.968 171.577 51.0376 172.507 49.8888C173.437 48.7399 174.155 47.441 174.661 45.9906C175.167 44.541 175.42 43.0639 175.42 41.559C175.42 39.9728 175.153 38.4476 174.62 36.9839C174.087 35.5209 173.341 34.2282 172.384 33.1062C171.427 31.9848 170.292 31.0891 168.979 30.4186C167.666 29.7487 166.216 29.4132 164.631 29.4132C162.99 29.4132 161.499 29.762 160.159 30.4596C158.819 31.1572 157.684 32.0805 156.754 33.2293C155.824 34.3783 155.106 35.6779 154.6 37.1275C154.094 38.5777 153.841 40.0549 153.841 41.5591V41.559Z" fill="url(#paint0_linear_255_521)"></path>
  <path d="M198.147 44.8826C199.131 44.6916 200.02 44.3287 200.813 43.7953C201.606 43.262 202.283 42.6053 202.844 41.8257C203.404 41.0462 203.842 40.1709 204.157 39.1996C204.471 38.2288 204.629 37.2095 204.629 36.1426C204.629 35.0213 204.417 33.9135 203.993 32.8189C203.569 31.7251 202.974 30.7468 202.208 29.8852C201.442 29.0234 200.533 28.3258 199.48 27.7924C198.427 27.2589 197.271 26.9922 196.014 26.9922H183.707V42.1892L186.578 39.7095V29.5364H195.85C196.643 29.5364 197.402 29.7145 198.126 30.0697C198.851 30.4256 199.48 30.9045 200.014 31.5059C200.547 32.108 200.971 32.8126 201.285 33.6191C201.599 34.4263 201.757 35.2675 201.757 36.1426C201.757 37.0184 201.62 37.8526 201.347 38.6456C201.073 39.4394 200.69 40.1505 200.198 40.7793C199.706 41.409 199.111 41.9078 198.414 42.2771C197.716 42.6463 196.943 42.8311 196.096 42.8311H183.707V56.1257H186.578V45.3751H195.193L202.044 56.1257H205.285L198.147 44.8826V44.8826Z" fill="url(#paint1_linear_255_521)"></path>
  <path d="M8.26469 0L0 4.77559V8.99625L8.26469 4.18758L12.9129 6.85513L11.9877 7.39252L8.26469 5.25112L5.02624 7.12453L12.4266 11.4106L16.5294 9.00842V4.77559L8.26469 0Z" fill="white"></path>
  <path d="M8.26469 19.0771L16.5294 14.3123V10.0808L8.26469 14.8894L3.6165 12.2219L4.5417 11.6845L8.26469 13.8259L11.5031 11.9525L4.10274 7.6665L0 10.0686V14.3123L8.26469 19.0771Z" fill="#00AB4E"></path>
  <path d="M25.4787 6.34076C26.2222 5.2502 27.3312 4.70459 28.8061 4.70459C30.1446 4.70459 31.2287 5.16955 32.0592 6.09925C32.8893 7.0167 33.3047 8.1507 33.3047 9.5017C33.3047 10.8529 32.8893 11.9871 32.0592 12.9041C31.2287 13.8338 30.1135 14.2988 28.7131 14.2988C27.3126 14.2988 26.2345 13.7474 25.4787 12.6439V17.8314H24.0845V4.85341H25.4787V6.34076V6.34076ZM28.6202 5.96892C27.6165 5.96892 26.8232 6.31625 26.2408 7.01024C25.6832 7.66747 25.4043 8.49759 25.4043 9.5017C25.4043 10.5058 25.6832 11.3364 26.2408 11.9932C26.8232 12.6876 27.6165 13.0345 28.6202 13.0345C29.6115 13.0345 30.417 12.6876 31.0367 11.9932C31.6191 11.3364 31.9104 10.5058 31.9104 9.5017C31.9104 8.49759 31.6191 7.66747 31.0367 7.01024C30.417 6.31625 29.6115 5.96892 28.6202 5.96892V5.96892Z" fill="white"></path>
  <path d="M36.2046 14.1502V6.08077H34.1187V4.85365H36.2046V1.52539H37.5987V4.85364H39.6732V6.08077H37.5987V14.1502H36.2046Z" fill="white"></path>
  <path d="M45.6106 13.0345C46.2055 13.0345 46.7321 12.8672 47.1907 12.5323C47.6489 12.1977 47.9836 11.7639 48.1943 11.2308H49.7001C49.415 12.1482 48.8944 12.8857 48.1387 13.4435C47.3455 14.0136 46.4035 14.2988 45.3132 14.2988C43.9498 14.2988 42.8408 13.8338 41.9857 12.9041C41.1553 11.9996 40.7404 10.8654 40.7404 9.5017C40.7404 8.13823 41.1553 7.00423 41.9857 6.09925C42.8408 5.16955 43.9498 4.70459 45.3132 4.70459C46.4035 4.70459 47.3455 4.98998 48.1387 5.55988C48.8944 6.11775 49.415 6.8554 49.7001 7.77263H48.1943C47.9836 7.23971 47.6489 6.80572 47.1907 6.47109C46.7321 6.13623 46.2055 5.96892 45.6106 5.96892C45.0156 5.96892 44.5107 6.06205 44.0955 6.24785C43.6803 6.43388 43.3301 6.68809 43.0453 7.01024C42.4379 7.6795 42.1345 8.51006 42.1345 9.5017C42.1345 10.4936 42.4379 11.3239 43.0453 11.9932C43.6647 12.6876 44.5198 13.0345 45.6106 13.0345L45.6106 13.0345Z" fill="white"></path>
  <path d="M219.258 42.3933L223.983 38.3123L232.566 26.9923H229.407L220.12 39.3512L210.704 26.8203H207.545L218.417 41.5485L218.249 41.7642L207.377 56.1258H210.618L219.848 43.816L229.079 56.1258H232.238L221.842 42.3933H219.258Z" fill="url(#paint2_linear_255_521)"></path>
  <path d="M71.7205 44.6538H71.7205L68.5123 52.5558L58.0925 26.9922H55.0975L67.2408 56.1257H69.7429L73.5353 47.0274L75.4669 42.3932H72.6383L71.7205 44.6538Z" fill="white"></path>
  <path d="M76.5609 38.6117L76.9076 38.3123L76.9079 38.3138L77.3117 37.9672L81.8862 26.9922H78.8913L72.977 41.559L72.8848 41.7862L76.5606 38.6119L76.5609 38.6117Z" fill="white"></path>
  <path d="M278.089 56.1463C276.836 56.1463 275.664 55.9865 274.572 55.6666C273.479 55.3469 272.52 54.9009 271.694 54.3275C270.868 53.7548 270.189 53.0621 269.656 52.2489C269.123 51.4363 268.777 50.5369 268.617 49.5506L270.296 48.0317C270.349 48.725 270.568 49.4045 270.955 50.0704C271.341 50.7368 271.874 51.3295 272.554 51.8492C273.233 52.3688 274.045 52.7885 274.991 53.1083C275.937 53.4281 276.97 53.5881 278.089 53.5881C279.101 53.5881 280.04 53.455 280.906 53.1882C281.772 52.9222 282.525 52.5487 283.164 52.069C283.804 51.5893 284.303 51.0097 284.663 50.3302C285.023 49.6506 285.202 48.911 285.202 48.1116C285.202 47.2322 284.989 46.4464 284.563 45.7532C284.136 45.0605 283.524 44.4677 282.725 43.9743C281.925 43.4815 280.966 43.1086 279.847 42.855C278.728 42.6021 277.475 42.4753 276.09 42.4753H274.732V40.1168H276.09C278.701 40.1168 280.746 39.6909 282.225 38.8377C283.704 37.9851 284.443 36.7059 284.443 35.0002C284.443 34.1745 284.27 33.4213 283.924 32.7417C283.577 32.0621 283.104 31.4826 282.505 31.0028C281.905 30.5231 281.206 30.1502 280.407 29.8835C279.607 29.6174 278.768 29.4838 277.889 29.4838C276.13 29.4838 274.625 29.8705 273.373 30.6431C272.12 31.4162 271.241 32.3757 270.735 33.5212L268.857 31.6824C269.23 30.9628 269.729 30.317 270.355 29.7436C270.981 29.1709 271.687 28.6843 272.474 28.2846C273.259 27.8849 274.112 27.5788 275.031 27.3652C275.951 27.1522 276.89 27.0454 277.849 27.0454C279.208 27.0454 280.46 27.2453 281.606 27.645C282.751 28.0447 283.744 28.5982 284.583 29.304C285.422 30.0103 286.082 30.843 286.561 31.8023C287.041 32.7616 287.281 33.801 287.281 34.9203C287.281 36.5461 286.807 37.8852 285.862 38.9376C284.916 39.9907 283.537 40.7433 281.726 41.1961C282.685 41.3828 283.55 41.6958 284.323 42.1355C285.096 42.5753 285.755 43.1149 286.302 43.7544C286.847 44.394 287.267 45.1136 287.56 45.913C287.853 46.7125 288 47.552 288 48.4314C288 49.6306 287.733 50.7037 287.201 51.6492C286.667 52.5955 285.948 53.4019 285.043 54.0677C284.136 54.7341 283.084 55.2469 281.885 55.6067C280.686 55.9664 279.421 56.1463 278.089 56.1463V56.1463Z" fill="#00AE4D"></path>
  <path d="M248.355 53.3084L248.355 53.3022H245.475C245.424 53.9096 245.398 54.5507 245.398 55.2271V55.7868H264.541V53.3084H248.355V53.3084Z" fill="#00AE4D"></path>
  <path d="M249.914 48.4314C250.499 47.6856 251.279 46.9723 252.252 46.2928C253.224 45.6132 254.456 44.9537 255.948 44.3141C256.934 43.8881 257.933 43.4347 258.946 42.9549C259.958 42.4753 260.877 41.8894 261.703 41.1961C262.529 40.5035 263.202 39.6709 263.722 38.6978C264.241 37.7253 264.501 36.5592 264.501 35.2C264.501 34.1077 264.314 33.0683 263.941 32.0821C263.568 31.0965 263.015 30.2302 262.283 29.4838C261.55 28.7381 260.63 28.1447 259.525 27.7049C258.419 27.2653 257.134 27.0454 255.669 27.0454C254.15 27.0454 252.804 27.2653 251.632 27.7049C250.459 28.1447 249.454 28.6443 248.615 29.204C247.776 29.7636 247.109 30.3102 246.617 30.843C246.123 31.3764 245.797 31.7361 245.637 31.9222L247.436 33.6811C247.756 33.2814 248.155 32.8416 248.635 32.3619C249.114 31.8823 249.68 31.4426 250.333 31.0428C250.986 30.6431 251.732 30.3033 252.571 30.0234C253.411 29.7436 254.35 29.6038 255.389 29.6038C256.428 29.6038 257.333 29.7574 258.106 30.0634C258.879 30.3701 259.511 30.7829 260.005 31.3026C260.497 31.8222 260.87 32.4218 261.124 33.1014C261.377 33.781 261.503 34.4942 261.503 35.24C261.503 36.413 261.237 37.3855 260.704 38.1581C260.171 38.9314 259.491 39.5909 258.666 40.1369C257.84 40.6833 256.934 41.1561 255.948 41.5559C254.962 41.9556 254.016 42.3691 253.111 42.7951C251.885 43.3816 250.793 44.028 249.834 44.7338C248.875 45.4402 248.068 46.2797 247.416 47.2522C246.763 48.2253 246.263 49.3577 245.917 50.6499C245.753 51.2615 245.63 51.927 245.543 52.6427L249.213 49.4963C249.408 49.1342 249.641 48.779 249.914 48.4314L249.914 48.4314Z" fill="#00AE4D"></path>
  <defs>
    <linearGradient id="paint0_linear_255_521" x1="169.627" y1="55.3392" x2="159.603" y2="27.8057" gradientUnits="userSpaceOnUse">
      <stop stop-color="#00AE4D"></stop>
      <stop offset="1" stop-color="white"></stop>
    </linearGradient>
    <linearGradient id="paint1_linear_255_521" x1="198.933" y1="58.4383" x2="187.043" y2="25.7777" gradientUnits="userSpaceOnUse">
      <stop stop-color="#00AE4D"></stop>
      <stop offset="0.08616" stop-color="#07B052"></stop>
      <stop offset="0.21783" stop-color="#1CB761"></stop>
      <stop offset="0.37854" stop-color="#3FC279"></stop>
      <stop offset="0.56218" stop-color="#70D19B"></stop>
      <stop offset="0.76523" stop-color="#AEE5C6"></stop>
      <stop offset="0.98152" stop-color="#F8FCFA"></stop>
      <stop offset="1" stop-color="white"></stop>
    </linearGradient>
    <linearGradient id="paint2_linear_255_521" x1="232.211" y1="56.1485" x2="207.575" y2="26.7953" gradientUnits="userSpaceOnUse">
      <stop stop-color="#00AE4D"></stop>
      <stop offset="0.15897" stop-color="#03AF4F"></stop>
      <stop offset="0.28895" stop-color="#0DB256"></stop>
      <stop offset="0.40879" stop-color="#1EB762"></stop>
      <stop offset="0.52255" stop-color="#36BF73"></stop>
      <stop offset="0.632" stop-color="#55C988"></stop>
      <stop offset="0.73823" stop-color="#7CD5A3"></stop>
      <stop offset="0.84186" stop-color="#A9E3C3"></stop>
      <stop offset="0.94088" stop-color="#DCF4E7"></stop>
      <stop offset="1" stop-color="white"></stop>
    </linearGradient>
  </defs>
</svg>
